HIERARCHY
ROOT Spine1
{
	OFFSET 0.000000 0.000000 0.000000
	CHANNELS 6 Xposition Yposition Zposition Yrotation Zrotation Xrotation
	JOINT ShoulderCenter
	{
		OFFSET -0.205514 18.876436 0.135159
		CHANNELS 3 Yrotation Zrotation Xrotation
		JOINT Head
		{
			OFFSET 0.770116 17.627657 -2.090287
			CHANNELS 3 Yrotation Zrotation Xrotation
			End Site
			{
				OFFSET 0.000000 0.000000 0.000000
			}
		}
	}
	JOINT ShoulderCenterRight
	{
		OFFSET -0.205514 18.876436 0.135159
		CHANNELS 3 Yrotation Zrotation Xrotation
		JOINT RightShoulder
		{
			OFFSET 17.845980 -12.702277 -2.126908
			CHANNELS 3 Yrotation Zrotation Xrotation
			JOINT RightElbow
			{
				OFFSET 8.847807 -25.499380 2.134490
				CHANNELS 3 Yrotation Zrotation Xrotation
				JOINT RightWrist
				{
					OFFSET 5.272747 -21.557648 -6.138015
					CHANNELS 3 Yrotation Zrotation Xrotation
					JOINT RightHand
					{
						OFFSET -0.533871 -8.203170 -1.887393
						CHANNELS 3 Yrotation Zrotation Xrotation
						End Site
						{
							OFFSET 0.000000 0.000000 0.000000
						}
					}
				}
			}
		}
	}
	JOINT ShoulderCenterLeft
	{
		OFFSET -0.205514 18.876436 0.135159
		CHANNELS 3 Yrotation Zrotation Xrotation
		JOINT LeftShoulder
		{
			OFFSET -16.847723 -13.857049 -4.385018
			CHANNELS 3 Yrotation Zrotation Xrotation
			JOINT LeftElbow
			{
				OFFSET -8.563190 -24.046736 4.514146
				CHANNELS 3 Yrotation Zrotation Xrotation
				JOINT LeftWrist
				{
					OFFSET -4.485908 -21.382311 -11.171365
					CHANNELS 3 Yrotation Zrotation Xrotation
					JOINT LeftHand
					{
						OFFSET 0.129318 -7.897506 -1.070809
						CHANNELS 3 Yrotation Zrotation Xrotation
						End Site
						{
							OFFSET 0.000000 0.000000 0.000000
						}
					}
				}
			}
		}
	}
	JOINT Spine
	{
		OFFSET 0.205514 -18.876436 -0.135183
		CHANNELS 3 Yrotation Zrotation Xrotation
		JOINT HipCenterRight
		{
			OFFSET 0.417976 -6.538494 -5.735588
			CHANNELS 3 Yrotation Zrotation Xrotation
			JOINT RightHip
			{
				OFFSET 7.923275 -7.724222 -0.286913
				CHANNELS 3 Yrotation Zrotation Xrotation
				JOINT RightKnee
				{
					OFFSET 3.370692 -49.466190 8.306599
					CHANNELS 3 Yrotation Zrotation Xrotation
					JOINT RightAnkle
					{
						OFFSET 0.972806 -34.745415 2.176142
						CHANNELS 3 Yrotation Zrotation Xrotation
						JOINT RightFoot
						{
							OFFSET 2.233496 -5.360538 -4.802442
							CHANNELS 3 Yrotation Zrotation Xrotation
							End Site
							{
								OFFSET 0.000000 0.000000 0.000000
							}
						}
					}
				}
			}
		}
		JOINT HipCenterLeft
		{
			OFFSET 0.417976 -6.538494 -5.735588
			CHANNELS 3 Yrotation Zrotation Xrotation
			JOINT LeftHip
			{
				OFFSET -7.696061 -7.801840 -2.236056
				CHANNELS 3 Yrotation Zrotation Xrotation
				JOINT LeftKnee
				{
					OFFSET -5.945611 -47.569527 7.938027
					CHANNELS 3 Yrotation Zrotation Xrotation
					JOINT LeftAnkle
					{
						OFFSET -0.066772 -36.578144 2.390933
						CHANNELS 3 Yrotation Zrotation Xrotation
						JOINT LeftFoot
						{
							OFFSET -2.356356 -6.590277 -5.911922
							CHANNELS 3 Yrotation Zrotation Xrotation
							End Site
							{
								OFFSET 0.000000 0.000000 0.000000
							}
						}
					}
				}
			}
		}
	}
}
MOTION
Frames: 17
Frame Time: 0.033333
1.100482 0.986591 1.351690 0.000577 0.288122 0.315237 -0.105088 -0.220835 1.893898 0.0 0.0 0.0 -1.980233 5.028542 -0.747865 1.881873 62.928116 16.361317 -4.496902 10.071714 -10.481798 -1.798961 21.068691 -12.058031 0.0 0.0 0.0 5.308181 -7.263462 -2.285463 -10.637937 -60.231113 16.506527 11.341093 -21.133471 -8.205707 3.679617 -13.565290 13.117564 0.0 0.0 0.0 0.985224 -0.973012 1.653648 -0.918410 0.359865 -0.882381 -0.142171 -0.719044 -0.287918 0.080360 0.914543 1.154642 -0.213879 -2.026460 -4.691784 0.0 0.0 0.0 -0.054825 1.389519 -0.343228 -0.138657 -1.293310 -0.681628 -0.010622 -0.164773 -0.390342 -2.806561 1.908406 2.805511 0.0 0.0 0.0 
1.113190 1.027384 1.354837 0.001040 0.232036 0.304839 -0.087304 0.012247 2.030631 0.0 0.0 0.0 -1.950057 4.927775 -0.740730 1.036678 66.722961 17.529903 -4.820120 12.510698 -9.065549 1.102478 2.247918 -19.464554 0.0 0.0 0.0 5.272241 -7.498030 -2.182933 -12.074654 -67.299004 15.307353 9.535273 -17.231184 -12.361046 1.226455 -3.962658 13.099614 0.0 0.0 0.0 0.947083 -0.932175 1.637413 -0.974541 0.288595 -0.939752 -0.117141 -0.609333 -0.201827 0.076820 0.859193 1.123730 0.013943 -2.301090 -4.684917 0.0 0.0 0.0 -0.128402 1.326773 -0.250825 -0.110569 -1.190330 -0.770828 -0.005823 -0.093174 -0.264480 -2.198868 1.510284 2.202601 0.0 0.0 0.0 
1.113117 1.175207 1.348257 0.000990 0.184746 0.249326 -0.110176 -0.083080 2.340948 0.0 0.0 0.0 -1.987616 5.003066 -0.756454 -0.695159 74.612274 18.700075 -3.715733 5.588659 -11.116090 -2.218223 19.564789 -9.494057 0.0 0.0 0.0 5.332517 -8.067280 -2.053398 -10.669600 -72.585594 19.750118 9.823164 -17.798649 -17.805138 0.557808 -1.101539 15.240685 0.0 0.0 0.0 0.949368 -0.919629 1.806987 -1.033692 -0.186982 -1.014899 -0.032261 -0.095531 -0.235009 0.079499 0.909361 1.125154 0.298402 -2.211130 -3.832519 0.0 0.0 0.0 -0.106179 1.314209 -0.269788 -0.045752 -0.814914 -0.766281 -0.019544 -0.290305 -0.789669 -1.005663 -0.049528 2.876078 0.0 0.0 0.0 
1.165789 1.243377 1.302147 0.002010 0.036152 0.214624 -0.077923 0.310345 2.476814 0.0 0.0 0.0 -2.089090 5.178706 -0.802575 -1.238685 76.287750 19.101585 -5.419855 13.399226 -12.580447 -1.883896 6.601355 2.928261 0.0 0.0 0.0 5.101122 -8.446053 -1.745303 -12.093112 -73.549530 17.305496 12.113443 -23.293320 -13.599641 -3.098693 14.451256 9.821361 0.0 0.0 0.0 0.805826 -0.751656 1.915102 -1.075829 -0.357911 -1.062249 -0.003505 0.084160 -0.261626 0.076808 0.850231 1.146185 -0.121358 -1.797508 -4.014752 0.0 0.0 0.0 -0.049355 1.212914 -0.298622 -0.017079 -0.728640 -0.881273 -0.031951 -0.460486 -0.836928 -0.338822 -0.418965 2.002961 0.0 0.0 0.0 
1.168811 1.344231 1.286602 0.001660 0.105177 0.242085 -0.078954 0.263135 2.399614 0.0 0.0 0.0 -2.014114 7.601509 -0.413025 -0.054919 75.665962 17.301579 -5.469197 14.490063 -11.089219 -0.819847 8.402245 -7.926191 0.0 0.0 0.0 4.596871 -9.636670 -0.957463 -14.018786 -78.698029 15.639358 10.521207 -19.683199 -18.429409 2.605012 -8.885143 14.351911 0.0 0.0 0.0 0.641070 -0.544623 2.221924 -1.225799 -0.464112 -1.212457 -0.046849 -0.116780 -0.393501 0.062065 0.675209 0.895440 -0.107428 -1.167239 -2.707550 0.0 0.0 0.0 0.082704 1.015334 -0.376279 -0.005747 -0.859615 -1.172157 -0.029840 -0.431871 -0.821208 -0.437414 -0.180825 1.667629 0.0 0.0 0.0 
1.150984 1.428020 1.309538 0.001904 0.015173 0.187097 -0.098751 0.124045 2.539750 0.0 0.0 0.0 -2.360876 9.012453 -0.444226 -5.367945 79.457466 24.197653 -4.828056 9.330544 -13.658354 -1.700558 12.613056 -6.700752 0.0 0.0 0.0 4.469457 -11.030837 -0.402239 -18.212954 -78.020630 8.982268 10.513197 -19.582754 -15.652807 2.961159 -10.222470 14.344265 0.0 0.0 0.0 0.519828 -0.387375 2.526563 -1.400113 -0.680371 -1.390455 0.005923 0.159149 -0.311683 0.052800 0.586577 0.702596 0.225713 -1.470823 -2.529051 0.0 0.0 0.0 0.129528 0.930462 -0.399550 0.024129 -0.793720 -1.325636 -0.032886 -0.473289 -0.838628 0.019660 -0.692460 1.712032 0.0 0.0 0.0 
1.184374 1.519415 1.299167 0.001439 0.116376 0.230199 -0.104119 0.042591 2.483483 0.0 0.0 0.0 -2.194769 10.388645 -0.129994 -2.544393 77.798431 20.670858 -6.310382 17.842234 -13.187492 -1.233092 4.894614 0.994805 0.0 0.0 0.0 4.717898 -11.960219 -0.292132 -16.504915 -79.116074 12.100400 11.732709 -22.815573 -17.487331 3.368437 -9.560307 19.754292 0.0 0.0 0.0 0.698316 -0.560476 2.789111 -1.609488 -0.419418 -1.585284 -0.037915 -0.064220 -0.394603 0.072497 0.857161 0.917846 0.715718 -2.400872 -3.223953 0.0 0.0 0.0 0.067224 0.986065 -0.352216 0.059839 -0.814563 -1.658964 -0.027358 -0.395524 -0.916144 -0.184658 -0.684551 2.261207 0.0 0.0 0.0 
1.180525 1.613307 1.328421 0.002566 0.122294 0.350450 -0.075317 0.058435 1.864013 0.0 0.0 0.0 -2.109017 10.829147 -0.007413 -1.353514 78.056824 18.740885 -6.066812 16.960018 -12.222729 -0.843997 5.288345 -3.284062 0.0 0.0 0.0 4.639302 -12.450821 -0.064545 -16.805965 -78.981682 11.594425 11.673534 -22.666004 -17.517550 3.452032 -10.576910 17.730450 0.0 0.0 0.0 0.693019 -0.557214 2.758813 -1.367236 -0.179050 -1.340048 -0.116147 -0.344775 -0.817062 0.070152 0.836805 0.858159 0.841748 -2.083129 -2.306612 0.0 0.0 0.0 0.171766 0.767281 -0.395697 0.090666 -0.631960 -1.639130 -0.031727 -0.455596 -0.897759 0.167785 -0.101202 -0.216538 0.0 0.0 0.0 
1.182522 1.674891 1.307964 0.003142 0.131035 0.418776 -0.066758 0.089917 1.743472 0.0 0.0 0.0 -2.071780 11.030684 0.047359 -0.164479 79.788773 16.526136 -6.282112 17.974813 -12.448232 -2.486233 12.697261 -2.364272 0.0 0.0 0.0 4.714880 -12.968010 0.051077 -16.194212 -78.881744 12.457246 13.711673 -27.120815 -14.357361 1.619505 -5.178524 14.380720 0.0 0.0 0.0 0.712821 -0.565324 2.921319 -1.561883 -0.124411 -1.527986 -0.120465 -0.364252 -0.829720 0.064363 0.786949 0.713983 1.509936 -2.921595 -2.404963 0.0 0.0 0.0 0.101593 0.823113 -0.340482 0.122930 -0.677808 -1.978367 -0.039828 -0.565690 -0.909831 -0.523036 0.280400 0.746937 0.0 0.0 0.0 
1.157203 1.718563 1.275253 0.003437 0.149946 0.470885 -0.072594 0.028675 1.732419 0.0 0.0 0.0 -1.861571 11.083503 0.194385 1.279128 81.160912 14.259530 -5.891106 16.058043 -12.223544 -3.548962 14.027946 1.714368 0.0 0.0 0.0 4.785685 -13.349535 0.125727 -15.805163 -78.561836 12.902963 14.035559 -27.507784 -12.762428 3.259218 -12.133778 12.707985 0.0 0.0 0.0 0.777807 -0.637145 2.904781 -1.398310 0.009474 -1.363437 -0.172493 -0.537630 -1.125573 0.038851 0.582460 0.103311 0.231365 -1.969129 -3.513811 0.0 0.0 0.0 0.176841 0.890035 -0.436007 0.094890 -0.713356 -1.798470 -0.040208 -0.563454 -1.084220 -1.938282 1.364039 1.879627 0.0 0.0 0.0 
1.148005 1.772720 1.267147 0.003888 0.186338 0.563832 -0.076201 -0.076114 1.564068 0.0 0.0 0.0 -1.767750 11.194284 0.272863 1.547952 81.264992 13.878017 -6.126189 17.262064 -12.226192 -3.609914 12.554851 4.038805 0.0 0.0 0.0 4.961629 -13.724213 0.116060 -16.675074 -78.908531 11.754659 13.148393 -25.564379 -12.943084 3.559172 -12.511793 14.237716 0.0 0.0 0.0 0.852745 -0.713527 2.962096 -0.962227 0.295658 -0.927481 -0.291737 -0.861958 -1.933567 0.060528 0.814162 0.456545 0.886030 -2.150707 -2.337267 0.0 0.0 0.0 0.389983 0.957808 -0.671861 0.056949 -0.795916 -1.605973 -0.041654 -0.575855 -1.244503 -2.016817 1.566113 1.606801 0.0 0.0 0.0 
1.146537 1.793411 1.262641 0.004229 0.195753 0.613318 -0.075863 -0.040591 1.642424 0.0 0.0 0.0 -1.923656 11.494089 0.214580 1.376147 80.808517 14.168820 -6.036689 16.885780 -12.033034 -3.831752 12.147977 5.878010 0.0 0.0 0.0 4.952532 -13.739220 0.128459 -16.510826 -78.972099 12.027183 13.146664 -25.619265 -13.282804 3.638385 -12.415134 15.024425 0.0 0.0 0.0 0.806201 -0.660408 2.994212 -0.961959 0.281119 -0.927754 -0.311820 -0.932298 -2.025404 0.073199 0.878607 0.894688 0.029827 -1.760278 -3.578049 0.0 0.0 0.0 0.452380 0.937597 -0.729499 0.055952 -0.820667 -1.635506 -0.047649 -0.650965 -1.312696 -2.424711 2.062973 1.494971 0.0 0.0 0.0 
1.161072 1.820961 1.242399 0.004296 0.208285 0.638038 -0.086000 -0.071054 1.804741 0.0 0.0 0.0 -1.987215 11.583153 0.186023 1.206488 80.365540 14.463972 -5.931401 15.276760 -14.200072 -4.503312 14.950271 5.278674 0.0 0.0 0.0 4.983449 -13.735768 0.102827 -16.262581 -78.944595 12.383060 13.037251 -25.439739 -13.689050 3.208577 -10.563985 15.687219 0.0 0.0 0.0 0.810843 -0.666842 2.977478 -1.034396 0.229292 -1.000317 -0.297805 -0.883572 -1.960605 0.060816 0.709983 0.750486 0.207213 -1.751955 -3.138639 0.0 0.0 0.0 0.396552 0.925925 -0.669420 0.062856 -0.840699 -1.724736 -0.044887 -0.622707 -1.150973 -1.621934 1.138979 1.593932 0.0 0.0 0.0 
1.172128 1.825818 1.227021 0.004288 0.224558 0.660384 -0.083769 -0.048694 1.806248 0.0 0.0 0.0 -1.974126 11.545483 0.188996 1.541148 79.702805 14.067891 -5.697507 14.269316 -13.651682 -3.379855 12.591797 2.723239 0.0 0.0 0.0 5.161884 -13.850254 0.001610 -15.443234 -78.902855 13.583064 10.874787 -20.451195 -14.923356 4.658743 -18.192965 11.966364 0.0 0.0 0.0 0.873593 -0.735120 2.973686 -1.077608 0.257225 -1.041438 -0.296327 -0.878563 -1.953397 0.059466 0.699100 0.716708 0.054189 -1.173302 -2.332282 0.0 0.0 0.0 0.376784 0.987169 -0.666841 0.061167 -0.829658 -1.693413 -0.053240 -0.738056 -1.075396 -3.363615 2.590840 2.624938 0.0 0.0 0.0 
1.162343 1.823571 1.227093 0.004424 0.245761 0.707176 -0.099007 -0.192761 1.816951 0.0 0.0 0.0 -1.794509 10.662950 0.176663 0.808835 78.913200 15.259530 -4.373838 9.222559 -10.800674 -4.928441 23.144741 -1.435403 0.0 0.0 0.0 5.186849 -13.708109 -0.067662 -10.858279 -77.273514 20.184973 12.207188 -23.709150 -15.147880 2.710944 -10.097951 12.391188 0.0 0.0 0.0 0.917283 -0.784982 2.944233 -1.052526 0.203230 -1.018961 -0.292204 -0.851052 -1.966181 0.071136 0.911941 0.700149 0.486235 -1.600038 -2.173858 0.0 0.0 0.0 0.301437 1.002648 -0.594714 0.078693 -0.808701 -1.809120 -0.050091 -0.685923 -1.254392 -2.981499 2.058383 2.894181 0.0 0.0 0.0 
1.139536 1.813346 1.236248 0.005703 0.201107 0.782060 -0.091161 -0.140806 1.757438 0.0 0.0 0.0 -1.730599 9.142137 -0.001727 1.671384 78.029030 14.074794 -4.465339 9.717255 -10.752695 -4.205149 18.855532 -0.523337 0.0 0.0 0.0 4.966048 -13.467628 0.023710 -10.920007 -75.668602 19.829969 11.512160 -22.076483 -15.728989 -0.012171 1.081628 19.249523 0.0 0.0 0.0 0.796397 -0.658419 2.891486 -1.078015 -0.010088 -1.051662 -0.261303 -0.676490 -1.985724 0.080104 0.916695 1.136148 -0.182111 -2.094507 -4.749520 0.0 0.0 0.0 0.143780 0.902847 -0.406115 0.136627 -0.723225 -2.163414 -0.056489 -0.786980 -0.994531 -2.530129 2.055475 1.777433 0.0 0.0 0.0 
1.128365 1.771018 1.209593 0.006623 0.169129 0.832295 -0.076051 -0.092677 1.519962 0.0 0.0 0.0 -1.776647 8.859217 -0.073241 2.915211 71.619110 12.521150 -5.269945 15.488444 -6.916072 -3.768023 20.631420 -3.865711 0.0 0.0 0.0 4.191738 -11.602081 0.007644 -14.254329 -74.333015 13.679567 11.066748 -20.764952 -12.208739 2.970796 -8.580809 18.891638 0.0 0.0 0.0 0.607635 -0.470462 2.683887 -1.039642 -0.156019 -1.019571 -0.256011 -0.696464 -1.865423 0.072151 0.821415 0.995110 -0.396168 -1.425593 -3.931470 0.0 0.0 0.0 0.142808 0.722188 -0.353372 0.140327 -0.711859 -2.176654 -0.051698 -0.734954 -0.791910 -1.997454 1.843650 0.912252 0.0 0.0 0.0 
